<svg width="82" height="69" viewBox="0 0 82 69" fill="none" xmlns="http://www.w3.org/2000/svg">
<path d="M75 0H6.25C4.5924 0 3.00268 0.65848 1.83058 1.83058C0.65848 3.00268 0 4.5924 0 6.25V62.5C0 64.1576 0.65848 65.7473 1.83058 66.9194C3.00268 68.0915 4.5924 68.75 6.25 68.75H11.4805C12.0719 68.7502 12.6512 68.5826 13.1512 68.2665C13.6511 67.9505 14.0511 67.4992 14.3047 66.9648C15.8243 63.7565 18.2235 61.0456 21.2232 59.1472C24.223 57.2488 27.7 56.241 31.25 56.241C34.8 56.241 38.277 57.2488 41.2768 59.1472C44.2765 61.0456 46.6757 63.7565 48.1953 66.9648C48.4489 67.4992 48.8489 67.9505 49.3488 68.2665C49.8488 68.5826 50.4281 68.7502 51.0195 68.75H75C76.6576 68.75 78.2473 68.0915 79.4194 66.9194C80.5915 65.7473 81.25 64.1576 81.25 62.5V6.25C81.25 4.5924 80.5915 3.00268 79.4194 1.83058C78.2473 0.65848 76.6576 0 75 0ZM21.875 40.625C21.875 38.7708 22.4248 36.9582 23.455 35.4165C24.4851 33.8748 25.9493 32.6732 27.6623 31.9636C29.3754 31.2541 31.2604 31.0684 33.079 31.4301C34.8975 31.7919 36.568 32.6848 37.8791 33.9959C39.1902 35.307 40.0831 36.9775 40.4449 38.796C40.8066 40.6146 40.6209 42.4996 39.9114 44.2127C39.2018 45.9257 38.0002 47.3899 36.4585 48.42C34.9168 49.4502 33.1042 50 31.25 50C28.7636 50 26.379 49.0123 24.6209 47.2541C22.8627 45.496 21.875 43.1114 21.875 40.625ZM75 62.5H52.9023C50.2927 58.0134 46.359 54.4439 41.6406 52.2812C44.0062 50.1749 45.6758 47.3994 46.428 44.3226C47.1802 41.2457 46.9796 38.013 45.8527 35.0528C44.7258 32.0926 42.7258 29.5448 40.1179 27.7471C37.5101 25.9495 34.4174 24.9868 31.25 24.9868C28.0826 24.9868 24.9899 25.9495 22.3821 27.7471C19.7742 29.5448 17.7742 32.0926 16.6473 35.0528C15.5204 38.013 15.3198 41.2457 16.072 44.3226C16.8242 47.3994 18.4938 50.1749 20.8594 52.2812C16.141 54.4439 12.2073 58.0134 9.59766 62.5H6.25V6.25H75V62.5ZM12.5 21.875V15.625C12.5 14.7962 12.8292 14.0013 13.4153 13.4153C14.0013 12.8292 14.7962 12.5 15.625 12.5H65.625C66.4538 12.5 67.2487 12.8292 67.8347 13.4153C68.4208 14.0013 68.75 14.7962 68.75 15.625V53.125C68.75 53.9538 68.4208 54.7487 67.8347 55.3347C67.2487 55.9208 66.4538 56.25 65.625 56.25H59.375C58.5462 56.25 57.7513 55.9208 57.1653 55.3347C56.5792 54.7487 56.25 53.9538 56.25 53.125C56.25 52.2962 56.5792 51.5013 57.1653 50.9153C57.7513 50.3292 58.5462 50 59.375 50H62.5V18.75H18.75V21.875C18.75 22.7038 18.4208 23.4987 17.8347 24.0847C17.2487 24.6708 16.4538 25 15.625 25C14.7962 25 14.0013 24.6708 13.4153 24.0847C12.8292 23.4987 12.5 22.7038 12.5 21.875Z" fill="#FFF4D8"/>
</svg>
