<svg width="69" height="85" viewBox="0 0 69 85" fill="none" xmlns="http://www.w3.org/2000/svg">
<path d="M50 53.1244C50 53.9532 49.6708 54.7481 49.0847 55.3341C48.4987 55.9202 47.7038 56.2494 46.875 56.2494H21.875C21.0462 56.2494 20.2513 55.9202 19.6653 55.3341C19.0792 54.7481 18.75 53.9532 18.75 53.1244C18.75 52.2956 19.0792 51.5008 19.6653 50.9147C20.2513 50.3287 21.0462 49.9994 21.875 49.9994H46.875C47.7038 49.9994 48.4987 50.3287 49.0847 50.9147C49.6708 51.5008 50 52.2956 50 53.1244ZM46.875 37.4994H21.875C21.0462 37.4994 20.2513 37.8287 19.6653 38.4147C19.0792 39.0008 18.75 39.7956 18.75 40.6244C18.75 41.4532 19.0792 42.2481 19.6653 42.8341C20.2513 43.4202 21.0462 43.7494 21.875 43.7494H46.875C47.7038 43.7494 48.4987 43.4202 49.0847 42.8341C49.6708 42.2481 50 41.4532 50 40.6244C50 39.7956 49.6708 39.0008 49.0847 38.4147C48.4987 37.8287 47.7038 37.4994 46.875 37.4994ZM68.75 12.4994V78.1244C68.75 79.782 68.0915 81.3717 66.9194 82.5439C65.7473 83.716 64.1576 84.3744 62.5 84.3744H6.25C4.5924 84.3744 3.00268 83.716 1.83058 82.5439C0.65848 81.3717 0 79.782 0 78.1244V12.4994C0 10.8418 0.65848 9.25212 1.83058 8.08002C3.00268 6.90791 4.5924 6.24943 6.25 6.24943H20.4141C22.1699 4.28351 24.3212 2.71059 26.7271 1.63365C29.1329 0.556696 31.7391 0 34.375 0C37.0109 0 39.6171 0.556696 42.0229 1.63365C44.4288 2.71059 46.5801 4.28351 48.3359 6.24943H62.5C64.1576 6.24943 65.7473 6.90791 66.9194 8.08002C68.0915 9.25212 68.75 10.8418 68.75 12.4994ZM21.875 18.7494H46.875C46.875 15.4342 45.558 12.2548 43.2138 9.9106C40.8696 7.56639 37.6902 6.24943 34.375 6.24943C31.0598 6.24943 27.8804 7.56639 25.5362 9.9106C23.192 12.2548 21.875 15.4342 21.875 18.7494ZM62.5 12.4994H52.0508C52.7616 14.5065 53.1249 16.6202 53.125 18.7494V21.8744C53.125 22.7032 52.7958 23.4981 52.2097 24.0841C51.6237 24.6702 50.8288 24.9994 50 24.9994H18.75C17.9212 24.9994 17.1263 24.6702 16.5403 24.0841C15.9542 23.4981 15.625 22.7032 15.625 21.8744V18.7494C15.6251 16.6202 15.9884 14.5065 16.6992 12.4994H6.25V78.1244H62.5V12.4994Z" fill="#FFF4D8"/>
</svg>
