<svg width="100" height="100" viewBox="0 0 100 100" fill="none" xmlns="http://www.w3.org/2000/svg">
<path d="M54.6875 79.6876C54.6875 80.6147 54.4126 81.5209 53.8975 82.2918C53.3825 83.0627 52.6504 83.6635 51.7938 84.0182C50.9373 84.373 49.9948 84.4659 49.0855 84.285C48.1762 84.1041 47.341 83.6577 46.6854 83.0021C46.0299 82.3466 45.5835 81.5113 45.4026 80.602C45.2217 79.6928 45.3145 78.7503 45.6693 77.8937C46.0241 77.0372 46.6249 76.3051 47.3958 75.7901C48.1666 75.275 49.0729 75.0001 50 75.0001C51.2432 75.0001 52.4355 75.4939 53.3146 76.373C54.1936 77.2521 54.6875 78.4444 54.6875 79.6876ZM92.6094 33.9844C80.5957 24.1305 65.538 18.745 50 18.745C34.462 18.745 19.4043 24.1305 7.39064 33.9844C7.07336 34.245 6.81052 34.5656 6.61712 34.9277C6.42372 35.2899 6.30355 35.6866 6.26347 36.0952C6.22339 36.5038 6.26418 36.9164 6.38352 37.3092C6.50286 37.7021 6.69841 38.0675 6.959 38.3848C7.21959 38.7021 7.54012 38.9649 7.90229 39.1583C8.26447 39.3517 8.66118 39.4719 9.0698 39.512C9.89503 39.5929 10.7186 39.3428 11.3594 38.8165C22.2547 29.8817 35.9097 24.9988 50 24.9988C64.0904 24.9988 77.7453 29.8817 88.6406 38.8165C89.2814 39.3428 90.105 39.5929 90.9302 39.512C91.7555 39.431 92.5147 39.0256 93.041 38.3848C93.5673 37.7441 93.8175 36.9205 93.7366 36.0952C93.6556 35.27 93.2501 34.5107 92.6094 33.9844ZM80.0781 47.9571C71.5209 41.1822 60.9262 37.4959 50.0117 37.4959C39.0972 37.4959 28.5026 41.1822 19.9453 47.9571C19.2958 48.472 18.8773 49.2238 18.7821 50.0472C18.6869 50.8706 18.9226 51.6981 19.4375 52.3477C19.9524 52.9973 20.7043 53.4157 21.5277 53.511C22.3511 53.6062 23.1786 53.3704 23.8281 52.8555C31.2807 46.9564 40.507 43.7468 50.0117 43.7468C59.5165 43.7468 68.7427 46.9564 76.1953 52.8555C76.5169 53.1105 76.8856 53.2997 77.2804 53.4121C77.6751 53.5246 78.0881 53.5582 78.4958 53.5111C78.9035 53.4639 79.298 53.3369 79.6566 53.1373C80.0152 52.9377 80.331 52.6694 80.5859 52.3477C80.8409 52.0261 81.0301 51.6574 81.1426 51.2627C81.255 50.868 81.2887 50.4549 81.2415 50.0472C81.1944 49.6395 81.0673 49.2451 80.8677 48.8864C80.6681 48.5278 80.3998 48.212 80.0781 47.9571ZM67.4766 61.9258C62.4005 58.2368 56.2867 56.2498 50.0117 56.2498C43.7367 56.2498 37.6229 58.2368 32.5469 61.9258C31.8766 62.4138 31.4276 63.148 31.2987 63.9671C31.1697 64.7861 31.3714 65.6227 31.8594 66.293C32.3473 66.9633 33.0816 67.4123 33.9006 67.5413C34.7196 67.6702 35.5563 67.4685 36.2266 66.9805C40.2325 64.0672 45.0584 62.4979 50.0117 62.4979C54.965 62.4979 59.791 64.0672 63.7969 66.9805C64.1288 67.2221 64.505 67.396 64.9041 67.4922C65.3032 67.5884 65.7173 67.6051 66.1229 67.5413C66.5284 67.4774 66.9174 67.3343 67.2676 67.1202C67.6178 66.906 67.9225 66.6249 68.1641 66.293C68.4057 65.9611 68.5796 65.5849 68.6758 65.1858C68.772 64.7867 68.7886 64.3726 68.7248 63.9671C68.661 63.5615 68.5179 63.1725 68.3037 62.8223C68.0895 62.4721 67.8085 62.1675 67.4766 61.9258Z" fill="#FFF4D8"/>
</svg>
